<?xml version="1.0" standalone="no"?>
<!DOCTYPE svg PUBLIC "-//W3C//DTD SVG 20010904//EN"
 "http://www.w3.org/TR/2001/REC-SVG-20010904/DTD/svg10.dtd">
<svg version="1.0" xmlns="http://www.w3.org/2000/svg"
 width="900.000000pt" height="900.000000pt" viewBox="0 0 900.000000 900.000000"
 preserveAspectRatio="xMidYMid meet">
<metadata>
Created by potrace 1.10, written by Peter Selinger 2001-2011
</metadata>
<g transform="translate(0.000000,900.000000) scale(0.100000,-0.100000)"
fill="#da7757" stroke="none">
<path d="M4435 8420 c-73 -11 -158 -68 -189 -127 -48 -93 -46 -44 -46 -1237 0
-1149 0 -1147 39 -1222 22 -42 88 -114 105 -114 7 0 19 -6 25 -14 13 -15 65
-27 121 -28 132 -2 240 86 280 227 17 60 9 2263 -8 2324 -7 24 -25 61 -40 82
-38 53 -127 109 -174 109 -20 0 -42 2 -50 4 -7 2 -35 0 -63 -4z m104 -100 c30
0 45 -8 79 -41 57 -57 70 -106 73 -269 7 -429 -3 -2002 -13 -2060 -9 -54 -18
-73 -51 -110 -57 -63 -79 -73 -140 -65 -116 16 -160 58 -187 182 -10 42 -11
171 -11 1358 -1 852 -2 793 21 865 11 36 27 74 35 84 24 32 97 66 129 61 16
-3 45 -5 65 -5z"/>
<path d="M2255 7031 c-58 -14 -90 -34 -133 -81 -45 -50 -82 -134 -82 -185 0
-32 20 -95 42 -135 8 -14 293 -302 634 -641 l619 -616 68 -21 c74 -22 86 -20
184 24 124 56 187 215 133 335 -14 33 -171 195 -642 665 -343 341 -635 628
-650 638 -31 18 -128 28 -173 17z m175 -141 c21 -22 43 -40 48 -40 5 0 30 -21
55 -47 26 -27 52 -54 59 -61 7 -7 28 -27 47 -45 18 -18 58 -62 88 -99 30 -38
60 -68 68 -68 18 0 235 -219 235 -237 0 -7 9 -13 20 -13 11 0 20 -5 20 -10 0
-6 28 -36 62 -68 88 -81 115 -110 160 -169 23 -31 53 -59 73 -67 19 -8 35 -19
35 -25 0 -5 42 -51 94 -103 114 -114 151 -177 143 -251 -4 -43 -10 -55 -43
-84 -79 -68 -119 -75 -213 -36 -27 12 -539 510 -853 831 -7 7 -80 80 -161 162
-228 228 -248 263 -214 361 18 51 35 69 92 96 74 36 133 27 185 -27z"/>
<path d="M6626 7024 c-8 -8 -20 -14 -26 -14 -7 0 -295 -282 -641 -628 -433
-432 -633 -639 -644 -664 -15 -38 -20 -140 -8 -198 4 -22 27 -54 69 -95 57
-57 67 -63 124 -73 68 -12 164 0 191 24 8 8 21 14 27 14 6 0 16 8 21 18 5 9
278 285 606 612 328 327 604 609 614 625 25 41 35 119 21 179 -14 64 -67 136
-131 177 -45 29 -60 33 -130 35 -58 2 -83 -1 -93 -12z m197 -128 c119 -97 80
-219 -132 -410 -13 -11 -89 -88 -170 -170 -80 -83 -166 -168 -191 -190 -24
-23 -57 -54 -72 -71 -15 -16 -32 -34 -38 -40 -317 -318 -468 -465 -477 -465
-7 0 -13 -6 -13 -12 0 -7 -23 -30 -51 -50 -42 -31 -61 -38 -103 -40 -77 -2
-86 0 -120 28 -88 74 -85 182 8 283 8 9 37 39 63 66 26 28 74 79 106 113 33
34 62 62 67 62 4 0 30 23 57 51 26 28 60 62 76 77 15 14 27 30 27 35 0 14 121
127 135 127 6 0 23 15 39 33 73 84 222 237 232 237 7 0 29 22 49 49 21 27 58
64 81 82 24 18 44 37 44 42 0 4 6 14 13 22 7 7 24 26 38 41 13 16 43 42 67 57
24 15 51 37 60 48 25 31 51 39 108 36 42 -3 60 -10 97 -41z"/>
<path d="M4320 5370 c-96 -20 -139 -35 -225 -79 -68 -34 -183 -123 -217 -167
-12 -16 -28 -32 -34 -37 -15 -9 -84 -110 -108 -157 -10 -19 -26 -62 -37 -95
-11 -33 -24 -69 -29 -80 -8 -18 -19 -96 -26 -185 -4 -45 15 -209 26 -235 5
-11 18 -48 29 -82 23 -72 30 -86 89 -177 44 -69 183 -216 204 -216 5 0 27 -13
47 -28 43 -34 132 -77 181 -87 19 -4 41 -12 47 -17 19 -15 128 -30 223 -31 91
-1 171 12 235 37 22 8 46 15 53 16 23 0 125 52 163 82 20 15 41 28 46 28 17 0
161 150 202 209 53 79 68 110 101 209 40 123 51 225 39 352 -5 58 -13 112 -17
120 -5 8 -16 42 -26 75 -10 33 -22 67 -27 75 -5 8 -14 27 -20 43 -6 15 -15 27
-20 27 -5 0 -9 4 -9 10 0 32 -127 174 -212 239 -62 46 -180 111 -203 111 -9 0
-26 6 -38 14 -31 20 -193 46 -280 45 -39 -1 -110 -9 -157 -19z m325 -84 c22
-8 65 -22 96 -31 72 -21 249 -137 316 -208 28 -30 65 -84 82 -120 17 -36 37
-70 44 -74 8 -4 17 -30 21 -57 3 -27 11 -55 17 -62 12 -15 16 -40 24 -172 5
-92 0 -126 -38 -256 -15 -50 -71 -163 -100 -199 -55 -70 -90 -106 -127 -132
-21 -15 -42 -35 -45 -44 -8 -20 -141 -85 -215 -105 -30 -8 -70 -19 -87 -25
-28 -8 -116 -13 -198 -12 -34 1 -149 24 -161 32 -6 5 -33 13 -61 19 -29 6 -63
22 -77 35 -14 13 -34 26 -45 30 -10 3 -22 12 -25 20 -3 8 -12 15 -20 15 -30 0
-114 81 -175 170 -35 52 -65 101 -66 109 -1 9 -9 32 -17 51 -38 85 -52 155
-52 270 1 108 20 224 42 254 5 6 14 31 22 56 7 25 23 56 36 70 12 14 29 41 39
60 18 36 71 92 105 110 11 6 20 17 20 24 0 21 190 136 224 136 10 0 31 8 49
17 59 32 300 44 372 19z"/>
<path d="M735 4789 c-67 -33 -90 -51 -121 -94 -44 -63 -54 -93 -54 -166 0 -63
4 -79 36 -138 39 -73 98 -121 176 -143 56 -16 2266 -24 2282 -8 5 5 23 10 39
10 62 0 178 109 203 190 9 31 10 158 1 167 -4 3 -7 14 -7 22 0 43 -101 141
-174 169 l-58 22 -1131 -1 -1132 0 -60 -30z m2330 -76 c22 -10 50 -28 62 -40
12 -13 28 -23 36 -23 18 0 47 -85 47 -138 0 -48 -4 -54 -79 -128 l-53 -52 -82
-5 c-44 -3 -94 -5 -111 -5 -16 0 -471 -1 -1010 -2 -601 -1 -991 3 -1006 8 -14
6 -32 6 -40 2 -24 -13 -124 59 -145 105 -19 41 -29 124 -20 160 11 45 93 105
180 131 17 5 502 8 1105 7 994 -3 1079 -4 1116 -20z"/>
<path d="M5843 4789 c-34 -17 -74 -44 -88 -62 -15 -18 -33 -40 -41 -50 -26
-32 -36 -70 -38 -142 -2 -77 11 -118 55 -180 34 -47 108 -99 159 -110 45 -11
2263 -11 2310 -1 19 5 60 25 91 45 45 29 64 49 93 102 32 58 36 75 36 135 -1
118 -62 210 -175 263 l-65 31 -1138 -1 -1137 0 -62 -30z m2277 -64 c135 -18
213 -111 196 -233 -6 -48 -27 -79 -86 -129 l-39 -34 -173 -7 c-95 -4 -585 -6
-1088 -5 -902 2 -1001 5 -1034 35 -6 4 -17 8 -26 8 -17 0 -70 55 -70 74 0 6
-7 20 -15 30 -22 29 -18 94 9 151 18 40 32 55 71 75 56 29 56 29 190 38 134 9
1995 7 2065 -3z"/>
<path d="M5440 3798 c-87 -60 -128 -116 -150 -204 -10 -39 -10 -59 -2 -80 6
-16 13 -42 17 -59 9 -43 1256 -1291 1300 -1301 16 -4 39 -13 50 -20 25 -18 85
-18 110 0 11 7 32 16 46 19 37 9 126 92 150 139 15 30 20 59 20 119 0 73 -3
83 -33 127 -46 68 -1220 1235 -1273 1266 -36 22 -56 26 -117 26 -65 -1 -78 -4
-118 -32z m196 -83 c30 -12 88 -63 156 -134 56 -59 109 -106 141 -127 20 -13
37 -28 37 -32 0 -19 87 -116 113 -125 9 -4 21 -17 27 -31 5 -13 29 -38 54 -56
25 -17 46 -37 46 -45 0 -8 8 -15 18 -15 10 0 32 -19 49 -42 31 -43 149 -164
242 -248 27 -25 58 -60 70 -78 11 -18 31 -37 43 -42 38 -16 58 -36 58 -58 0
-14 14 -31 40 -47 23 -14 43 -32 47 -40 3 -8 13 -15 22 -15 15 0 61 -79 61
-104 0 -5 7 -17 16 -27 12 -13 14 -26 8 -46 -4 -15 -8 -39 -9 -52 0 -14 -21
-42 -52 -72 -48 -46 -55 -49 -103 -49 -32 0 -66 8 -92 21 -24 12 -124 104
-231 210 -104 104 -193 189 -198 189 -5 0 -14 10 -20 23 -14 25 -56 67 -68 67
-5 0 -16 12 -25 26 -10 14 -35 41 -56 60 -22 20 -42 44 -45 55 -4 10 -15 19
-25 19 -10 0 -26 12 -36 28 -20 31 -77 93 -114 125 -59 52 -390 390 -390 399
0 5 -9 21 -20 35 -11 14 -20 40 -20 58 0 46 49 136 89 162 40 27 113 31 167 8z"/>
<path d="M3352 3720 c-24 -5 -58 -18 -75 -29 -18 -11 -310 -298 -649 -638
-495 -496 -619 -625 -624 -651 -4 -18 -11 -35 -15 -38 -12 -7 -11 -100 0 -122
6 -9 12 -28 15 -42 7 -33 91 -117 147 -146 52 -29 162 -34 195 -9 10 8 27 15
38 15 19 0 1207 1181 1261 1253 38 51 47 160 19 237 -42 116 -187 195 -312
170z m132 -112 c51 -26 68 -41 80 -68 43 -103 27 -156 -85 -282 -15 -17 -34
-38 -42 -47 -41 -45 -129 -121 -142 -121 -7 0 -17 -10 -20 -22 -4 -11 -60 -72
-124 -133 -64 -62 -127 -125 -141 -139 -37 -39 -538 -540 -590 -590 -67 -65
-102 -80 -171 -72 -51 5 -63 11 -100 48 -68 69 -85 129 -51 191 22 42 113 157
123 157 4 0 20 11 35 25 15 14 31 25 35 25 5 0 9 8 9 18 0 10 11 25 25 32 14
7 25 19 25 27 0 7 7 13 16 13 8 0 22 16 30 36 11 27 18 33 28 25 14 -12 26 -5
26 16 0 8 26 38 57 66 32 29 78 72 103 98 25 25 53 48 63 52 9 3 17 13 17 22
0 14 114 135 129 135 3 0 33 32 65 70 34 40 67 70 78 70 13 0 18 7 18 25 0 14
4 25 10 25 12 0 56 44 70 70 6 11 19 20 30 20 10 0 25 8 32 18 7 10 21 21 32
25 10 4 16 13 13 20 -3 7 19 30 49 51 30 22 54 43 54 47 0 9 66 48 110 64 19
7 36 13 37 14 2 0 32 -14 67 -31z"/>
<path d="M4363 3270 c-40 -21 -104 -77 -120 -104 -46 -79 -43 -14 -43 -1253
l0 -1165 30 -56 c24 -44 45 -66 88 -93 31 -20 66 -40 77 -44 30 -12 176 -5
210 9 70 30 134 110 164 207 16 50 16 2238 0 2288 -31 100 -84 167 -161 206
-42 21 -63 25 -131 24 -57 -1 -92 -7 -114 -19z m182 -86 c17 -3 35 -12 40 -19
6 -6 20 -17 33 -24 12 -6 22 -18 22 -26 0 -8 4 -15 9 -15 12 0 28 -45 36 -99
3 -24 5 -521 5 -1105 0 -1091 -1 -1111 -38 -1148 -7 -7 -12 -17 -12 -23 0 -6
-15 -26 -34 -44 -33 -32 -38 -34 -114 -34 -93 -1 -131 16 -175 79 l-28 40 1
420 c1 230 1 520 0 644 -7 1225 -6 1242 61 1308 55 55 105 66 194 46z"/>
</g>
</svg>
